<svg width="176" height="191" viewBox="0 0 176 191" fill="none" xmlns="http://www.w3.org/2000/svg">
<path fill-rule="evenodd" clip-rule="evenodd" d="M6 2.99865C6 4.6554 4.6575 5.99729 3 5.99729C1.3425 5.99729 0 4.6554 0 2.99865C0 1.34189 1.3425 0 3 0C4.6575 0 6 1.34189 6 2.99865Z" fill="#F0A536"/>
<path fill-rule="evenodd" clip-rule="evenodd" d="M6 17.9919C6 19.6487 4.6575 20.9906 3 20.9906C1.3425 20.9906 0 19.6487 0 17.9919C0 16.3352 1.3425 14.9933 3 14.9933C4.6575 14.9933 6 16.3352 6 17.9919Z" fill="#F0A536"/>
<path fill-rule="evenodd" clip-rule="evenodd" d="M22 17.9919C22 19.6487 20.6575 20.9906 19 20.9906C17.3425 20.9906 16 19.6487 16 17.9919C16 16.3352 17.3425 14.9933 19 14.9933C20.6575 14.9933 22 16.3352 22 17.9919Z" fill="#F0A536"/>
<path fill-rule="evenodd" clip-rule="evenodd" d="M37 17.9919C37 19.6487 35.6575 20.9906 34 20.9906C32.3425 20.9906 31 19.6487 31 17.9919C31 16.3352 32.3425 14.9933 34 14.9933C35.6575 14.9933 37 16.3352 37 17.9919Z" fill="#F0A536"/>
<path fill-rule="evenodd" clip-rule="evenodd" d="M52 17.9919C52 19.6487 50.6575 20.9906 49 20.9906C47.3425 20.9906 46 19.6487 46 17.9919C46 16.3352 47.3425 14.9933 49 14.9933C50.6575 14.9933 52 16.3352 52 17.9919Z" fill="#F0A536"/>
<path fill-rule="evenodd" clip-rule="evenodd" d="M68 17.9919C68 19.6487 66.6575 20.9906 65 20.9906C63.3425 20.9906 62 19.6487 62 17.9919C62 16.3352 63.3425 14.9933 65 14.9933C66.6575 14.9933 68 16.3352 68 17.9919Z" fill="#F0A536"/>
<path fill-rule="evenodd" clip-rule="evenodd" d="M83 17.9919C83 19.6487 81.6575 20.9906 80 20.9906C78.3425 20.9906 77 19.6487 77 17.9919C77 16.3352 78.3425 14.9933 80 14.9933C81.6575 14.9933 83 16.3352 83 17.9919Z" fill="#F0A536"/>
<path fill-rule="evenodd" clip-rule="evenodd" d="M99 17.9919C99 19.6487 97.6575 20.9906 96 20.9906C94.3425 20.9906 93 19.6487 93 17.9919C93 16.3352 94.3425 14.9933 96 14.9933C97.6575 14.9933 99 16.3352 99 17.9919Z" fill="#F0A536"/>
<path fill-rule="evenodd" clip-rule="evenodd" d="M114 17.9919C114 19.6487 112.658 20.9906 111 20.9906C109.342 20.9906 108 19.6487 108 17.9919C108 16.3352 109.342 14.9933 111 14.9933C112.658 14.9933 114 16.3352 114 17.9919Z" fill="#F0A536"/>
<path fill-rule="evenodd" clip-rule="evenodd" d="M130 17.9919C130 19.6487 128.658 20.9906 127 20.9906C125.342 20.9906 124 19.6487 124 17.9919C124 16.3352 125.342 14.9933 127 14.9933C128.658 14.9933 130 16.3352 130 17.9919Z" fill="#F0A536"/>
<path fill-rule="evenodd" clip-rule="evenodd" d="M145 17.9919C145 19.6487 143.658 20.9906 142 20.9906C140.342 20.9906 139 19.6487 139 17.9919C139 16.3352 140.342 14.9933 142 14.9933C143.658 14.9933 145 16.3352 145 17.9919Z" fill="#F0A536"/>
<path fill-rule="evenodd" clip-rule="evenodd" d="M160 17.9919C160 19.6487 158.658 20.9906 157 20.9906C155.342 20.9906 154 19.6487 154 17.9919C154 16.3352 155.342 14.9933 157 14.9933C158.658 14.9933 160 16.3352 160 17.9919Z" fill="#F0A536"/>
<path fill-rule="evenodd" clip-rule="evenodd" d="M176 17.9919C176 19.6487 174.658 20.9906 173 20.9906C171.342 20.9906 170 19.6487 170 17.9919C170 16.3352 171.342 14.9933 173 14.9933C174.658 14.9933 176 16.3352 176 17.9919Z" fill="#F0A536"/>
<path fill-rule="evenodd" clip-rule="evenodd" d="M6 33.9846C6 35.6414 4.6575 36.9833 3 36.9833C1.3425 36.9833 0 35.6414 0 33.9846C0 32.3279 1.3425 30.986 3 30.986C4.6575 30.986 6 32.3279 6 33.9846Z" fill="#F0A536"/>
<path fill-rule="evenodd" clip-rule="evenodd" d="M22 33.9846C22 35.6414 20.6575 36.9833 19 36.9833C17.3425 36.9833 16 35.6414 16 33.9846C16 32.3279 17.3425 30.986 19 30.986C20.6575 30.986 22 32.3279 22 33.9846Z" fill="#F0A536"/>
<path fill-rule="evenodd" clip-rule="evenodd" d="M37 33.9846C37 35.6414 35.6575 36.9833 34 36.9833C32.3425 36.9833 31 35.6414 31 33.9846C31 32.3279 32.3425 30.986 34 30.986C35.6575 30.986 37 32.3279 37 33.9846Z" fill="#F0A536"/>
<path fill-rule="evenodd" clip-rule="evenodd" d="M52 33.9846C52 35.6414 50.6575 36.9833 49 36.9833C47.3425 36.9833 46 35.6414 46 33.9846C46 32.3279 47.3425 30.986 49 30.986C50.6575 30.986 52 32.3279 52 33.9846Z" fill="#F0A536"/>
<path fill-rule="evenodd" clip-rule="evenodd" d="M68 33.9846C68 35.6414 66.6575 36.9833 65 36.9833C63.3425 36.9833 62 35.6414 62 33.9846C62 32.3279 63.3425 30.986 65 30.986C66.6575 30.986 68 32.3279 68 33.9846Z" fill="#F0A536"/>
<path fill-rule="evenodd" clip-rule="evenodd" d="M83 33.9846C83 35.6414 81.6575 36.9833 80 36.9833C78.3425 36.9833 77 35.6414 77 33.9846C77 32.3279 78.3425 30.986 80 30.986C81.6575 30.986 83 32.3279 83 33.9846Z" fill="#F0A536"/>
<path fill-rule="evenodd" clip-rule="evenodd" d="M99 33.9846C99 35.6414 97.6575 36.9833 96 36.9833C94.3425 36.9833 93 35.6414 93 33.9846C93 32.3279 94.3425 30.986 96 30.986C97.6575 30.986 99 32.3279 99 33.9846Z" fill="#F0A536"/>
<path fill-rule="evenodd" clip-rule="evenodd" d="M114 33.9846C114 35.6414 112.658 36.9833 111 36.9833C109.342 36.9833 108 35.6414 108 33.9846C108 32.3279 109.342 30.986 111 30.986C112.658 30.986 114 32.3279 114 33.9846Z" fill="#F0A536"/>
<path fill-rule="evenodd" clip-rule="evenodd" d="M130 33.9846C130 35.6414 128.658 36.9833 127 36.9833C125.342 36.9833 124 35.6414 124 33.9846C124 32.3279 125.342 30.986 127 30.986C128.658 30.986 130 32.3279 130 33.9846Z" fill="#F0A536"/>
<path fill-rule="evenodd" clip-rule="evenodd" d="M145 33.9846C145 35.6414 143.658 36.9833 142 36.9833C140.342 36.9833 139 35.6414 139 33.9846C139 32.3279 140.342 30.986 142 30.986C143.658 30.986 145 32.3279 145 33.9846Z" fill="#F0A536"/>
<path fill-rule="evenodd" clip-rule="evenodd" d="M160 33.9846C160 35.6414 158.658 36.9833 157 36.9833C155.342 36.9833 154 35.6414 154 33.9846C154 32.3279 155.342 30.986 157 30.986C158.658 30.986 160 32.3279 160 33.9846Z" fill="#F0A536"/>
<path fill-rule="evenodd" clip-rule="evenodd" d="M176 33.9846C176 35.6414 174.658 36.9833 173 36.9833C171.342 36.9833 170 35.6414 170 33.9846C170 32.3279 171.342 30.986 173 30.986C174.658 30.986 176 32.3279 176 33.9846Z" fill="#F0A536"/>
<path fill-rule="evenodd" clip-rule="evenodd" d="M6 48.9779C6 50.6346 4.6575 51.9765 3 51.9765C1.3425 51.9765 0 50.6346 0 48.9779C0 47.3211 1.3425 45.9792 3 45.9792C4.6575 45.9792 6 47.3211 6 48.9779Z" fill="#F0A536"/>
<path fill-rule="evenodd" clip-rule="evenodd" d="M22 48.9779C22 50.6346 20.6575 51.9765 19 51.9765C17.3425 51.9765 16 50.6346 16 48.9779C16 47.3211 17.3425 45.9792 19 45.9792C20.6575 45.9792 22 47.3211 22 48.9779Z" fill="#F0A536"/>
<path fill-rule="evenodd" clip-rule="evenodd" d="M37 48.9779C37 50.6346 35.6575 51.9765 34 51.9765C32.3425 51.9765 31 50.6346 31 48.9779C31 47.3211 32.3425 45.9792 34 45.9792C35.6575 45.9792 37 47.3211 37 48.9779Z" fill="#F0A536"/>
<path fill-rule="evenodd" clip-rule="evenodd" d="M52 48.9779C52 50.6346 50.6575 51.9765 49 51.9765C47.3425 51.9765 46 50.6346 46 48.9779C46 47.3211 47.3425 45.9792 49 45.9792C50.6575 45.9792 52 47.3211 52 48.9779Z" fill="#F0A536"/>
<path fill-rule="evenodd" clip-rule="evenodd" d="M68 48.9779C68 50.6346 66.6575 51.9765 65 51.9765C63.3425 51.9765 62 50.6346 62 48.9779C62 47.3211 63.3425 45.9792 65 45.9792C66.6575 45.9792 68 47.3211 68 48.9779Z" fill="#F0A536"/>
<path fill-rule="evenodd" clip-rule="evenodd" d="M83 48.9779C83 50.6346 81.6575 51.9765 80 51.9765C78.3425 51.9765 77 50.6346 77 48.9779C77 47.3211 78.3425 45.9792 80 45.9792C81.6575 45.9792 83 47.3211 83 48.9779Z" fill="#F0A536"/>
<path fill-rule="evenodd" clip-rule="evenodd" d="M99 48.9779C99 50.6346 97.6575 51.9765 96 51.9765C94.3425 51.9765 93 50.6346 93 48.9779C93 47.3211 94.3425 45.9792 96 45.9792C97.6575 45.9792 99 47.3211 99 48.9779Z" fill="#F0A536"/>
<path fill-rule="evenodd" clip-rule="evenodd" d="M114 48.9779C114 50.6346 112.658 51.9765 111 51.9765C109.342 51.9765 108 50.6346 108 48.9779C108 47.3211 109.342 45.9792 111 45.9792C112.658 45.9792 114 47.3211 114 48.9779Z" fill="#F0A536"/>
<path fill-rule="evenodd" clip-rule="evenodd" d="M130 48.9779C130 50.6346 128.658 51.9765 127 51.9765C125.342 51.9765 124 50.6346 124 48.9779C124 47.3211 125.342 45.9792 127 45.9792C128.658 45.9792 130 47.3211 130 48.9779Z" fill="#F0A536"/>
<path fill-rule="evenodd" clip-rule="evenodd" d="M145 48.9779C145 50.6346 143.658 51.9765 142 51.9765C140.342 51.9765 139 50.6346 139 48.9779C139 47.3211 140.342 45.9792 142 45.9792C143.658 45.9792 145 47.3211 145 48.9779Z" fill="#F0A536"/>
<path fill-rule="evenodd" clip-rule="evenodd" d="M160 48.9779C160 50.6346 158.658 51.9765 157 51.9765C155.342 51.9765 154 50.6346 154 48.9779C154 47.3211 155.342 45.9792 157 45.9792C158.658 45.9792 160 47.3211 160 48.9779Z" fill="#F0A536"/>
<path fill-rule="evenodd" clip-rule="evenodd" d="M176 48.9779C176 50.6346 174.658 51.9765 173 51.9765C171.342 51.9765 170 50.6346 170 48.9779C170 47.3211 171.342 45.9792 173 45.9792C174.658 45.9792 176 47.3211 176 48.9779Z" fill="#F0A536"/>
<path fill-rule="evenodd" clip-rule="evenodd" d="M6 64.9707C6 66.6274 4.6575 67.9693 3 67.9693C1.3425 67.9693 0 66.6274 0 64.9707C0 63.3139 1.3425 61.972 3 61.972C4.6575 61.972 6 63.3139 6 64.9707Z" fill="#F0A536"/>
<path fill-rule="evenodd" clip-rule="evenodd" d="M22 64.9707C22 66.6274 20.6575 67.9693 19 67.9693C17.3425 67.9693 16 66.6274 16 64.9707C16 63.3139 17.3425 61.972 19 61.972C20.6575 61.972 22 63.3139 22 64.9707Z" fill="#F0A536"/>
<path fill-rule="evenodd" clip-rule="evenodd" d="M37 64.9707C37 66.6274 35.6575 67.9693 34 67.9693C32.3425 67.9693 31 66.6274 31 64.9707C31 63.3139 32.3425 61.972 34 61.972C35.6575 61.972 37 63.3139 37 64.9707Z" fill="#F0A536"/>
<path fill-rule="evenodd" clip-rule="evenodd" d="M52 64.9707C52 66.6274 50.6575 67.9693 49 67.9693C47.3425 67.9693 46 66.6274 46 64.9707C46 63.3139 47.3425 61.972 49 61.972C50.6575 61.972 52 63.3139 52 64.9707Z" fill="#F0A536"/>
<path fill-rule="evenodd" clip-rule="evenodd" d="M68 64.9707C68 66.6274 66.6575 67.9693 65 67.9693C63.3425 67.9693 62 66.6274 62 64.9707C62 63.3139 63.3425 61.972 65 61.972C66.6575 61.972 68 63.3139 68 64.9707Z" fill="#F0A536"/>
<path fill-rule="evenodd" clip-rule="evenodd" d="M83 64.9707C83 66.6274 81.6575 67.9693 80 67.9693C78.3425 67.9693 77 66.6274 77 64.9707C77 63.3139 78.3425 61.972 80 61.972C81.6575 61.972 83 63.3139 83 64.9707Z" fill="#F0A536"/>
<path fill-rule="evenodd" clip-rule="evenodd" d="M99 64.9707C99 66.6274 97.6575 67.9693 96 67.9693C94.3425 67.9693 93 66.6274 93 64.9707C93 63.3139 94.3425 61.972 96 61.972C97.6575 61.972 99 63.3139 99 64.9707Z" fill="#F0A536"/>
<path fill-rule="evenodd" clip-rule="evenodd" d="M114 64.9707C114 66.6274 112.658 67.9693 111 67.9693C109.342 67.9693 108 66.6274 108 64.9707C108 63.3139 109.342 61.972 111 61.972C112.658 61.972 114 63.3139 114 64.9707Z" fill="#F0A536"/>
<path fill-rule="evenodd" clip-rule="evenodd" d="M130 64.9707C130 66.6274 128.658 67.9693 127 67.9693C125.342 67.9693 124 66.6274 124 64.9707C124 63.3139 125.342 61.972 127 61.972C128.658 61.972 130 63.3139 130 64.9707Z" fill="#F0A536"/>
<path fill-rule="evenodd" clip-rule="evenodd" d="M145 64.9707C145 66.6274 143.658 67.9693 142 67.9693C140.342 67.9693 139 66.6274 139 64.9707C139 63.3139 140.342 61.972 142 61.972C143.658 61.972 145 63.3139 145 64.9707Z" fill="#F0A536"/>
<path fill-rule="evenodd" clip-rule="evenodd" d="M160 64.9707C160 66.6274 158.658 67.9693 157 67.9693C155.342 67.9693 154 66.6274 154 64.9707C154 63.3139 155.342 61.972 157 61.972C158.658 61.972 160 63.3139 160 64.9707Z" fill="#F0A536"/>
<path fill-rule="evenodd" clip-rule="evenodd" d="M176 64.9707C176 66.6274 174.658 67.9693 173 67.9693C171.342 67.9693 170 66.6274 170 64.9707C170 63.3139 171.342 61.972 173 61.972C174.658 61.972 176 63.3139 176 64.9707Z" fill="#F0A536"/>
<path fill-rule="evenodd" clip-rule="evenodd" d="M6 79.9639C6 81.6207 4.6575 82.9626 3 82.9626C1.3425 82.9626 0 81.6207 0 79.9639C0 78.3072 1.3425 76.9653 3 76.9653C4.6575 76.9653 6 78.3072 6 79.9639Z" fill="#F0A536"/>
<path fill-rule="evenodd" clip-rule="evenodd" d="M22 79.9639C22 81.6207 20.6575 82.9626 19 82.9626C17.3425 82.9626 16 81.6207 16 79.9639C16 78.3072 17.3425 76.9653 19 76.9653C20.6575 76.9653 22 78.3072 22 79.9639Z" fill="#F0A536"/>
<path fill-rule="evenodd" clip-rule="evenodd" d="M37 79.9639C37 81.6207 35.6575 82.9626 34 82.9626C32.3425 82.9626 31 81.6207 31 79.9639C31 78.3072 32.3425 76.9653 34 76.9653C35.6575 76.9653 37 78.3072 37 79.9639Z" fill="#F0A536"/>
<path fill-rule="evenodd" clip-rule="evenodd" d="M52 79.9639C52 81.6207 50.6575 82.9626 49 82.9626C47.3425 82.9626 46 81.6207 46 79.9639C46 78.3072 47.3425 76.9653 49 76.9653C50.6575 76.9653 52 78.3072 52 79.9639Z" fill="#F0A536"/>
<path fill-rule="evenodd" clip-rule="evenodd" d="M68 79.9639C68 81.6207 66.6575 82.9626 65 82.9626C63.3425 82.9626 62 81.6207 62 79.9639C62 78.3072 63.3425 76.9653 65 76.9653C66.6575 76.9653 68 78.3072 68 79.9639Z" fill="#F0A536"/>
<path fill-rule="evenodd" clip-rule="evenodd" d="M83 79.9639C83 81.6207 81.6575 82.9626 80 82.9626C78.3425 82.9626 77 81.6207 77 79.9639C77 78.3072 78.3425 76.9653 80 76.9653C81.6575 76.9653 83 78.3072 83 79.9639Z" fill="#F0A536"/>
<path fill-rule="evenodd" clip-rule="evenodd" d="M99 79.9639C99 81.6207 97.6575 82.9626 96 82.9626C94.3425 82.9626 93 81.6207 93 79.9639C93 78.3072 94.3425 76.9653 96 76.9653C97.6575 76.9653 99 78.3072 99 79.9639Z" fill="#F0A536"/>
<path fill-rule="evenodd" clip-rule="evenodd" d="M114 79.9639C114 81.6207 112.658 82.9626 111 82.9626C109.342 82.9626 108 81.6207 108 79.9639C108 78.3072 109.342 76.9653 111 76.9653C112.658 76.9653 114 78.3072 114 79.9639Z" fill="#F0A536"/>
<path fill-rule="evenodd" clip-rule="evenodd" d="M130 79.9639C130 81.6207 128.658 82.9626 127 82.9626C125.342 82.9626 124 81.6207 124 79.9639C124 78.3072 125.342 76.9653 127 76.9653C128.658 76.9653 130 78.3072 130 79.9639Z" fill="#F0A536"/>
<path fill-rule="evenodd" clip-rule="evenodd" d="M145 79.9639C145 81.6207 143.658 82.9626 142 82.9626C140.342 82.9626 139 81.6207 139 79.9639C139 78.3072 140.342 76.9653 142 76.9653C143.658 76.9653 145 78.3072 145 79.9639Z" fill="#F0A536"/>
<path fill-rule="evenodd" clip-rule="evenodd" d="M160 79.9639C160 81.6207 158.658 82.9626 157 82.9626C155.342 82.9626 154 81.6207 154 79.9639C154 78.3072 155.342 76.9653 157 76.9653C158.658 76.9653 160 78.3072 160 79.9639Z" fill="#F0A536"/>
<path fill-rule="evenodd" clip-rule="evenodd" d="M176 79.9639C176 81.6207 174.658 82.9626 173 82.9626C171.342 82.9626 170 81.6207 170 79.9639C170 78.3072 171.342 76.9653 173 76.9653C174.658 76.9653 176 78.3072 176 79.9639Z" fill="#F0A536"/>
<path fill-rule="evenodd" clip-rule="evenodd" d="M6 95.9567C6 97.6135 4.6575 98.9554 3 98.9554C1.3425 98.9554 0 97.6135 0 95.9567C0 94.3 1.3425 92.9581 3 92.9581C4.6575 92.9581 6 94.3 6 95.9567Z" fill="#F0A536"/>
<path fill-rule="evenodd" clip-rule="evenodd" d="M22 95.9567C22 97.6135 20.6575 98.9554 19 98.9554C17.3425 98.9554 16 97.6135 16 95.9567C16 94.3 17.3425 92.9581 19 92.9581C20.6575 92.9581 22 94.3 22 95.9567Z" fill="#F0A536"/>
<path fill-rule="evenodd" clip-rule="evenodd" d="M37 95.9567C37 97.6135 35.6575 98.9554 34 98.9554C32.3425 98.9554 31 97.6135 31 95.9567C31 94.3 32.3425 92.9581 34 92.9581C35.6575 92.9581 37 94.3 37 95.9567Z" fill="#F0A536"/>
<path fill-rule="evenodd" clip-rule="evenodd" d="M52 95.9567C52 97.6135 50.6575 98.9554 49 98.9554C47.3425 98.9554 46 97.6135 46 95.9567C46 94.3 47.3425 92.9581 49 92.9581C50.6575 92.9581 52 94.3 52 95.9567Z" fill="#F0A536"/>
<path fill-rule="evenodd" clip-rule="evenodd" d="M68 95.9567C68 97.6135 66.6575 98.9554 65 98.9554C63.3425 98.9554 62 97.6135 62 95.9567C62 94.3 63.3425 92.9581 65 92.9581C66.6575 92.9581 68 94.3 68 95.9567Z" fill="#F0A536"/>
<path fill-rule="evenodd" clip-rule="evenodd" d="M83 95.9567C83 97.6135 81.6575 98.9554 80 98.9554C78.3425 98.9554 77 97.6135 77 95.9567C77 94.3 78.3425 92.9581 80 92.9581C81.6575 92.9581 83 94.3 83 95.9567Z" fill="#F0A536"/>
<path fill-rule="evenodd" clip-rule="evenodd" d="M99 95.9567C99 97.6135 97.6575 98.9554 96 98.9554C94.3425 98.9554 93 97.6135 93 95.9567C93 94.3 94.3425 92.9581 96 92.9581C97.6575 92.9581 99 94.3 99 95.9567Z" fill="#F0A536"/>
<path fill-rule="evenodd" clip-rule="evenodd" d="M114 95.9567C114 97.6135 112.658 98.9554 111 98.9554C109.342 98.9554 108 97.6135 108 95.9567C108 94.3 109.342 92.9581 111 92.9581C112.658 92.9581 114 94.3 114 95.9567Z" fill="#F0A536"/>
<path fill-rule="evenodd" clip-rule="evenodd" d="M130 95.9567C130 97.6135 128.658 98.9554 127 98.9554C125.342 98.9554 124 97.6135 124 95.9567C124 94.3 125.342 92.9581 127 92.9581C128.658 92.9581 130 94.3 130 95.9567Z" fill="#F0A536"/>
<path fill-rule="evenodd" clip-rule="evenodd" d="M145 95.9567C145 97.6135 143.658 98.9554 142 98.9554C140.342 98.9554 139 97.6135 139 95.9567C139 94.3 140.342 92.9581 142 92.9581C143.658 92.9581 145 94.3 145 95.9567Z" fill="#F0A536"/>
<path fill-rule="evenodd" clip-rule="evenodd" d="M160 95.9567C160 97.6135 158.658 98.9554 157 98.9554C155.342 98.9554 154 97.6135 154 95.9567C154 94.3 155.342 92.9581 157 92.9581C158.658 92.9581 160 94.3 160 95.9567Z" fill="#F0A536"/>
<path fill-rule="evenodd" clip-rule="evenodd" d="M176 95.9567C176 97.6135 174.658 98.9554 173 98.9554C171.342 98.9554 170 97.6135 170 95.9567C170 94.3 171.342 92.9581 173 92.9581C174.658 92.9581 176 94.3 176 95.9567Z" fill="#F0A536"/>
<path fill-rule="evenodd" clip-rule="evenodd" d="M6 110.95C6 112.607 4.6575 113.949 3 113.949C1.3425 113.949 0 112.607 0 110.95C0 109.293 1.3425 107.951 3 107.951C4.6575 107.951 6 109.293 6 110.95Z" fill="#F0A536"/>
<path fill-rule="evenodd" clip-rule="evenodd" d="M22 110.95C22 112.607 20.6575 113.949 19 113.949C17.3425 113.949 16 112.607 16 110.95C16 109.293 17.3425 107.951 19 107.951C20.6575 107.951 22 109.293 22 110.95Z" fill="#F0A536"/>
<path fill-rule="evenodd" clip-rule="evenodd" d="M37 110.95C37 112.607 35.6575 113.949 34 113.949C32.3425 113.949 31 112.607 31 110.95C31 109.293 32.3425 107.951 34 107.951C35.6575 107.951 37 109.293 37 110.95Z" fill="#F0A536"/>
<path fill-rule="evenodd" clip-rule="evenodd" d="M52 110.95C52 112.607 50.6575 113.949 49 113.949C47.3425 113.949 46 112.607 46 110.95C46 109.293 47.3425 107.951 49 107.951C50.6575 107.951 52 109.293 52 110.95Z" fill="#F0A536"/>
<path fill-rule="evenodd" clip-rule="evenodd" d="M68 110.95C68 112.607 66.6575 113.949 65 113.949C63.3425 113.949 62 112.607 62 110.95C62 109.293 63.3425 107.951 65 107.951C66.6575 107.951 68 109.293 68 110.95Z" fill="#F0A536"/>
<path fill-rule="evenodd" clip-rule="evenodd" d="M83 110.95C83 112.607 81.6575 113.949 80 113.949C78.3425 113.949 77 112.607 77 110.95C77 109.293 78.3425 107.951 80 107.951C81.6575 107.951 83 109.293 83 110.95Z" fill="#F0A536"/>
<path fill-rule="evenodd" clip-rule="evenodd" d="M99 110.95C99 112.607 97.6575 113.949 96 113.949C94.3425 113.949 93 112.607 93 110.95C93 109.293 94.3425 107.951 96 107.951C97.6575 107.951 99 109.293 99 110.95Z" fill="#F0A536"/>
<path fill-rule="evenodd" clip-rule="evenodd" d="M114 110.95C114 112.607 112.658 113.949 111 113.949C109.342 113.949 108 112.607 108 110.95C108 109.293 109.342 107.951 111 107.951C112.658 107.951 114 109.293 114 110.95Z" fill="#F0A536"/>
<path fill-rule="evenodd" clip-rule="evenodd" d="M130 110.95C130 112.607 128.658 113.949 127 113.949C125.342 113.949 124 112.607 124 110.95C124 109.293 125.342 107.951 127 107.951C128.658 107.951 130 109.293 130 110.95Z" fill="#F0A536"/>
<path fill-rule="evenodd" clip-rule="evenodd" d="M145 110.95C145 112.607 143.658 113.949 142 113.949C140.342 113.949 139 112.607 139 110.95C139 109.293 140.342 107.951 142 107.951C143.658 107.951 145 109.293 145 110.95Z" fill="#F0A536"/>
<path fill-rule="evenodd" clip-rule="evenodd" d="M160 110.95C160 112.607 158.658 113.949 157 113.949C155.342 113.949 154 112.607 154 110.95C154 109.293 155.342 107.951 157 107.951C158.658 107.951 160 109.293 160 110.95Z" fill="#F0A536"/>
<path fill-rule="evenodd" clip-rule="evenodd" d="M176 110.95C176 112.607 174.658 113.949 173 113.949C171.342 113.949 170 112.607 170 110.95C170 109.293 171.342 107.951 173 107.951C174.658 107.951 176 109.293 176 110.95Z" fill="#F0A536"/>
<path fill-rule="evenodd" clip-rule="evenodd" d="M6 125.943C6 127.6 4.6575 128.942 3 128.942C1.3425 128.942 0 127.6 0 125.943C0 124.286 1.3425 122.945 3 122.945C4.6575 122.945 6 124.286 6 125.943Z" fill="#F0A536"/>
<path fill-rule="evenodd" clip-rule="evenodd" d="M22 125.943C22 127.6 20.6575 128.942 19 128.942C17.3425 128.942 16 127.6 16 125.943C16 124.286 17.3425 122.945 19 122.945C20.6575 122.945 22 124.286 22 125.943Z" fill="#F0A536"/>
<path fill-rule="evenodd" clip-rule="evenodd" d="M37 125.943C37 127.6 35.6575 128.942 34 128.942C32.3425 128.942 31 127.6 31 125.943C31 124.286 32.3425 122.945 34 122.945C35.6575 122.945 37 124.286 37 125.943Z" fill="#F0A536"/>
<path fill-rule="evenodd" clip-rule="evenodd" d="M52 125.943C52 127.6 50.6575 128.942 49 128.942C47.3425 128.942 46 127.6 46 125.943C46 124.286 47.3425 122.945 49 122.945C50.6575 122.945 52 124.286 52 125.943Z" fill="#F0A536"/>
<path fill-rule="evenodd" clip-rule="evenodd" d="M68 125.943C68 127.6 66.6575 128.942 65 128.942C63.3425 128.942 62 127.6 62 125.943C62 124.286 63.3425 122.945 65 122.945C66.6575 122.945 68 124.286 68 125.943Z" fill="#F0A536"/>
<path fill-rule="evenodd" clip-rule="evenodd" d="M83 125.943C83 127.6 81.6575 128.942 80 128.942C78.3425 128.942 77 127.6 77 125.943C77 124.286 78.3425 122.945 80 122.945C81.6575 122.945 83 124.286 83 125.943Z" fill="#F0A536"/>
<path fill-rule="evenodd" clip-rule="evenodd" d="M99 125.943C99 127.6 97.6575 128.942 96 128.942C94.3425 128.942 93 127.6 93 125.943C93 124.286 94.3425 122.945 96 122.945C97.6575 122.945 99 124.286 99 125.943Z" fill="#F0A536"/>
<path fill-rule="evenodd" clip-rule="evenodd" d="M114 125.943C114 127.6 112.658 128.942 111 128.942C109.342 128.942 108 127.6 108 125.943C108 124.286 109.342 122.945 111 122.945C112.658 122.945 114 124.286 114 125.943Z" fill="#F0A536"/>
<path fill-rule="evenodd" clip-rule="evenodd" d="M130 125.943C130 127.6 128.658 128.942 127 128.942C125.342 128.942 124 127.6 124 125.943C124 124.286 125.342 122.945 127 122.945C128.658 122.945 130 124.286 130 125.943Z" fill="#F0A536"/>
<path fill-rule="evenodd" clip-rule="evenodd" d="M145 125.943C145 127.6 143.658 128.942 142 128.942C140.342 128.942 139 127.6 139 125.943C139 124.286 140.342 122.945 142 122.945C143.658 122.945 145 124.286 145 125.943Z" fill="#F0A536"/>
<path fill-rule="evenodd" clip-rule="evenodd" d="M160 125.943C160 127.6 158.658 128.942 157 128.942C155.342 128.942 154 127.6 154 125.943C154 124.286 155.342 122.945 157 122.945C158.658 122.945 160 124.286 160 125.943Z" fill="#F0A536"/>
<path fill-rule="evenodd" clip-rule="evenodd" d="M176 125.943C176 127.6 174.658 128.942 173 128.942C171.342 128.942 170 127.6 170 125.943C170 124.286 171.342 122.945 173 122.945C174.658 122.945 176 124.286 176 125.943Z" fill="#F0A536"/>
<path fill-rule="evenodd" clip-rule="evenodd" d="M6 141.936C6 143.593 4.6575 144.935 3 144.935C1.3425 144.935 0 143.593 0 141.936C0 140.279 1.3425 138.937 3 138.937C4.6575 138.937 6 140.279 6 141.936Z" fill="#F0A536"/>
<path fill-rule="evenodd" clip-rule="evenodd" d="M22 141.936C22 143.593 20.6575 144.935 19 144.935C17.3425 144.935 16 143.593 16 141.936C16 140.279 17.3425 138.937 19 138.937C20.6575 138.937 22 140.279 22 141.936Z" fill="#F0A536"/>
<path fill-rule="evenodd" clip-rule="evenodd" d="M37 141.936C37 143.593 35.6575 144.935 34 144.935C32.3425 144.935 31 143.593 31 141.936C31 140.279 32.3425 138.937 34 138.937C35.6575 138.937 37 140.279 37 141.936Z" fill="#F0A536"/>
<path fill-rule="evenodd" clip-rule="evenodd" d="M52 141.936C52 143.593 50.6575 144.935 49 144.935C47.3425 144.935 46 143.593 46 141.936C46 140.279 47.3425 138.937 49 138.937C50.6575 138.937 52 140.279 52 141.936Z" fill="#F0A536"/>
<path fill-rule="evenodd" clip-rule="evenodd" d="M68 141.936C68 143.593 66.6575 144.935 65 144.935C63.3425 144.935 62 143.593 62 141.936C62 140.279 63.3425 138.937 65 138.937C66.6575 138.937 68 140.279 68 141.936Z" fill="#F0A536"/>
<path fill-rule="evenodd" clip-rule="evenodd" d="M83 141.936C83 143.593 81.6575 144.935 80 144.935C78.3425 144.935 77 143.593 77 141.936C77 140.279 78.3425 138.937 80 138.937C81.6575 138.937 83 140.279 83 141.936Z" fill="#F0A536"/>
<path fill-rule="evenodd" clip-rule="evenodd" d="M99 141.936C99 143.593 97.6575 144.935 96 144.935C94.3425 144.935 93 143.593 93 141.936C93 140.279 94.3425 138.937 96 138.937C97.6575 138.937 99 140.279 99 141.936Z" fill="#F0A536"/>
<path fill-rule="evenodd" clip-rule="evenodd" d="M114 141.936C114 143.593 112.658 144.935 111 144.935C109.342 144.935 108 143.593 108 141.936C108 140.279 109.342 138.937 111 138.937C112.658 138.937 114 140.279 114 141.936Z" fill="#F0A536"/>
<path fill-rule="evenodd" clip-rule="evenodd" d="M130 141.936C130 143.593 128.658 144.935 127 144.935C125.342 144.935 124 143.593 124 141.936C124 140.279 125.342 138.937 127 138.937C128.658 138.937 130 140.279 130 141.936Z" fill="#F0A536"/>
<path fill-rule="evenodd" clip-rule="evenodd" d="M145 141.936C145 143.593 143.658 144.935 142 144.935C140.342 144.935 139 143.593 139 141.936C139 140.279 140.342 138.937 142 138.937C143.658 138.937 145 140.279 145 141.936Z" fill="#F0A536"/>
<path fill-rule="evenodd" clip-rule="evenodd" d="M160 141.936C160 143.593 158.658 144.935 157 144.935C155.342 144.935 154 143.593 154 141.936C154 140.279 155.342 138.937 157 138.937C158.658 138.937 160 140.279 160 141.936Z" fill="#F0A536"/>
<path fill-rule="evenodd" clip-rule="evenodd" d="M176 141.936C176 143.593 174.658 144.935 173 144.935C171.342 144.935 170 143.593 170 141.936C170 140.279 171.342 138.937 173 138.937C174.658 138.937 176 140.279 176 141.936Z" fill="#F0A536"/>
<path fill-rule="evenodd" clip-rule="evenodd" d="M6 156.929C6 158.586 4.6575 159.928 3 159.928C1.3425 159.928 0 158.586 0 156.929C0 155.272 1.3425 153.931 3 153.931C4.6575 153.931 6 155.272 6 156.929Z" fill="#F0A536"/>
<path fill-rule="evenodd" clip-rule="evenodd" d="M22 156.929C22 158.586 20.6575 159.928 19 159.928C17.3425 159.928 16 158.586 16 156.929C16 155.272 17.3425 153.931 19 153.931C20.6575 153.931 22 155.272 22 156.929Z" fill="#F0A536"/>
<path fill-rule="evenodd" clip-rule="evenodd" d="M37 156.929C37 158.586 35.6575 159.928 34 159.928C32.3425 159.928 31 158.586 31 156.929C31 155.272 32.3425 153.931 34 153.931C35.6575 153.931 37 155.272 37 156.929Z" fill="#F0A536"/>
<path fill-rule="evenodd" clip-rule="evenodd" d="M52 156.929C52 158.586 50.6575 159.928 49 159.928C47.3425 159.928 46 158.586 46 156.929C46 155.272 47.3425 153.931 49 153.931C50.6575 153.931 52 155.272 52 156.929Z" fill="#F0A536"/>
<path fill-rule="evenodd" clip-rule="evenodd" d="M68 156.929C68 158.586 66.6575 159.928 65 159.928C63.3425 159.928 62 158.586 62 156.929C62 155.272 63.3425 153.931 65 153.931C66.6575 153.931 68 155.272 68 156.929Z" fill="#F0A536"/>
<path fill-rule="evenodd" clip-rule="evenodd" d="M83 156.929C83 158.586 81.6575 159.928 80 159.928C78.3425 159.928 77 158.586 77 156.929C77 155.272 78.3425 153.931 80 153.931C81.6575 153.931 83 155.272 83 156.929Z" fill="#F0A536"/>
<path fill-rule="evenodd" clip-rule="evenodd" d="M99 156.929C99 158.586 97.6575 159.928 96 159.928C94.3425 159.928 93 158.586 93 156.929C93 155.272 94.3425 153.931 96 153.931C97.6575 153.931 99 155.272 99 156.929Z" fill="#F0A536"/>
<path fill-rule="evenodd" clip-rule="evenodd" d="M114 156.929C114 158.586 112.658 159.928 111 159.928C109.342 159.928 108 158.586 108 156.929C108 155.272 109.342 153.931 111 153.931C112.658 153.931 114 155.272 114 156.929Z" fill="#F0A536"/>
<path fill-rule="evenodd" clip-rule="evenodd" d="M130 156.929C130 158.586 128.658 159.928 127 159.928C125.342 159.928 124 158.586 124 156.929C124 155.272 125.342 153.931 127 153.931C128.658 153.931 130 155.272 130 156.929Z" fill="#F0A536"/>
<path fill-rule="evenodd" clip-rule="evenodd" d="M145 156.929C145 158.586 143.658 159.928 142 159.928C140.342 159.928 139 158.586 139 156.929C139 155.272 140.342 153.931 142 153.931C143.658 153.931 145 155.272 145 156.929Z" fill="#F0A536"/>
<path fill-rule="evenodd" clip-rule="evenodd" d="M160 156.929C160 158.586 158.658 159.928 157 159.928C155.342 159.928 154 158.586 154 156.929C154 155.272 155.342 153.931 157 153.931C158.658 153.931 160 155.272 160 156.929Z" fill="#F0A536"/>
<path fill-rule="evenodd" clip-rule="evenodd" d="M176 156.929C176 158.586 174.658 159.928 173 159.928C171.342 159.928 170 158.586 170 156.929C170 155.272 171.342 153.931 173 153.931C174.658 153.931 176 155.272 176 156.929Z" fill="#F0A536"/>
<path fill-rule="evenodd" clip-rule="evenodd" d="M6 172.922C6 174.579 4.6575 175.921 3 175.921C1.3425 175.921 0 174.579 0 172.922C0 171.265 1.3425 169.923 3 169.923C4.6575 169.923 6 171.265 6 172.922Z" fill="#F0A536"/>
<path fill-rule="evenodd" clip-rule="evenodd" d="M22 172.922C22 174.579 20.6575 175.921 19 175.921C17.3425 175.921 16 174.579 16 172.922C16 171.265 17.3425 169.923 19 169.923C20.6575 169.923 22 171.265 22 172.922Z" fill="#F0A536"/>
<path fill-rule="evenodd" clip-rule="evenodd" d="M37 172.922C37 174.579 35.6575 175.921 34 175.921C32.3425 175.921 31 174.579 31 172.922C31 171.265 32.3425 169.923 34 169.923C35.6575 169.923 37 171.265 37 172.922Z" fill="#F0A536"/>
<path fill-rule="evenodd" clip-rule="evenodd" d="M52 172.922C52 174.579 50.6575 175.921 49 175.921C47.3425 175.921 46 174.579 46 172.922C46 171.265 47.3425 169.923 49 169.923C50.6575 169.923 52 171.265 52 172.922Z" fill="#F0A536"/>
<path fill-rule="evenodd" clip-rule="evenodd" d="M68 172.922C68 174.579 66.6575 175.921 65 175.921C63.3425 175.921 62 174.579 62 172.922C62 171.265 63.3425 169.923 65 169.923C66.6575 169.923 68 171.265 68 172.922Z" fill="#F0A536"/>
<path fill-rule="evenodd" clip-rule="evenodd" d="M83 172.922C83 174.579 81.6575 175.921 80 175.921C78.3425 175.921 77 174.579 77 172.922C77 171.265 78.3425 169.923 80 169.923C81.6575 169.923 83 171.265 83 172.922Z" fill="#F0A536"/>
<path fill-rule="evenodd" clip-rule="evenodd" d="M99 172.922C99 174.579 97.6575 175.921 96 175.921C94.3425 175.921 93 174.579 93 172.922C93 171.265 94.3425 169.923 96 169.923C97.6575 169.923 99 171.265 99 172.922Z" fill="#F0A536"/>
<path fill-rule="evenodd" clip-rule="evenodd" d="M114 172.922C114 174.579 112.658 175.921 111 175.921C109.342 175.921 108 174.579 108 172.922C108 171.265 109.342 169.923 111 169.923C112.658 169.923 114 171.265 114 172.922Z" fill="#F0A536"/>
<path fill-rule="evenodd" clip-rule="evenodd" d="M130 172.922C130 174.579 128.658 175.921 127 175.921C125.342 175.921 124 174.579 124 172.922C124 171.265 125.342 169.923 127 169.923C128.658 169.923 130 171.265 130 172.922Z" fill="#F0A536"/>
<path fill-rule="evenodd" clip-rule="evenodd" d="M145 172.922C145 174.579 143.658 175.921 142 175.921C140.342 175.921 139 174.579 139 172.922C139 171.265 140.342 169.923 142 169.923C143.658 169.923 145 171.265 145 172.922Z" fill="#F0A536"/>
<path fill-rule="evenodd" clip-rule="evenodd" d="M160 172.922C160 174.579 158.658 175.921 157 175.921C155.342 175.921 154 174.579 154 172.922C154 171.265 155.342 169.923 157 169.923C158.658 169.923 160 171.265 160 172.922Z" fill="#F0A536"/>
<path fill-rule="evenodd" clip-rule="evenodd" d="M176 172.922C176 174.579 174.658 175.921 173 175.921C171.342 175.921 170 174.579 170 172.922C170 171.265 171.342 169.923 173 169.923C174.658 169.923 176 171.265 176 172.922Z" fill="#F0A536"/>
<path fill-rule="evenodd" clip-rule="evenodd" d="M6 187.915C6 189.572 4.6575 190.914 3 190.914C1.3425 190.914 0 189.572 0 187.915C0 186.258 1.3425 184.917 3 184.917C4.6575 184.917 6 186.258 6 187.915Z" fill="#F0A536"/>
<path fill-rule="evenodd" clip-rule="evenodd" d="M22 187.915C22 189.572 20.6575 190.914 19 190.914C17.3425 190.914 16 189.572 16 187.915C16 186.258 17.3425 184.917 19 184.917C20.6575 184.917 22 186.258 22 187.915Z" fill="#F0A536"/>
<path fill-rule="evenodd" clip-rule="evenodd" d="M37 187.915C37 189.572 35.6575 190.914 34 190.914C32.3425 190.914 31 189.572 31 187.915C31 186.258 32.3425 184.917 34 184.917C35.6575 184.917 37 186.258 37 187.915Z" fill="#F0A536"/>
<path fill-rule="evenodd" clip-rule="evenodd" d="M52 187.915C52 189.572 50.6575 190.914 49 190.914C47.3425 190.914 46 189.572 46 187.915C46 186.258 47.3425 184.917 49 184.917C50.6575 184.917 52 186.258 52 187.915Z" fill="#F0A536"/>
<path fill-rule="evenodd" clip-rule="evenodd" d="M68 187.915C68 189.572 66.6575 190.914 65 190.914C63.3425 190.914 62 189.572 62 187.915C62 186.258 63.3425 184.917 65 184.917C66.6575 184.917 68 186.258 68 187.915Z" fill="#F0A536"/>
<path fill-rule="evenodd" clip-rule="evenodd" d="M83 187.915C83 189.572 81.6575 190.914 80 190.914C78.3425 190.914 77 189.572 77 187.915C77 186.258 78.3425 184.917 80 184.917C81.6575 184.917 83 186.258 83 187.915Z" fill="#F0A536"/>
<path fill-rule="evenodd" clip-rule="evenodd" d="M99 187.915C99 189.572 97.6575 190.914 96 190.914C94.3425 190.914 93 189.572 93 187.915C93 186.258 94.3425 184.917 96 184.917C97.6575 184.917 99 186.258 99 187.915Z" fill="#F0A536"/>
<path fill-rule="evenodd" clip-rule="evenodd" d="M114 187.915C114 189.572 112.658 190.914 111 190.914C109.342 190.914 108 189.572 108 187.915C108 186.258 109.342 184.917 111 184.917C112.658 184.917 114 186.258 114 187.915Z" fill="#F0A536"/>
<path fill-rule="evenodd" clip-rule="evenodd" d="M130 187.915C130 189.572 128.658 190.914 127 190.914C125.342 190.914 124 189.572 124 187.915C124 186.258 125.342 184.917 127 184.917C128.658 184.917 130 186.258 130 187.915Z" fill="#F0A536"/>
<path fill-rule="evenodd" clip-rule="evenodd" d="M145 187.915C145 189.572 143.658 190.914 142 190.914C140.342 190.914 139 189.572 139 187.915C139 186.258 140.342 184.917 142 184.917C143.658 184.917 145 186.258 145 187.915Z" fill="#F0A536"/>
<path fill-rule="evenodd" clip-rule="evenodd" d="M160 187.915C160 189.572 158.658 190.914 157 190.914C155.342 190.914 154 189.572 154 187.915C154 186.258 155.342 184.917 157 184.917C158.658 184.917 160 186.258 160 187.915Z" fill="#F0A536"/>
<path fill-rule="evenodd" clip-rule="evenodd" d="M176 187.915C176 189.572 174.658 190.914 173 190.914C171.342 190.914 170 189.572 170 187.915C170 186.258 171.342 184.917 173 184.917C174.658 184.917 176 186.258 176 187.915Z" fill="#F0A536"/>
<path fill-rule="evenodd" clip-rule="evenodd" d="M22 2.99865C22 4.6554 20.6575 5.99729 19 5.99729C17.3425 5.99729 16 4.6554 16 2.99865C16 1.34189 17.3425 0 19 0C20.6575 0 22 1.34189 22 2.99865Z" fill="#F0A536"/>
<path fill-rule="evenodd" clip-rule="evenodd" d="M37 2.99865C37 4.6554 35.6575 5.99729 34 5.99729C32.3425 5.99729 31 4.6554 31 2.99865C31 1.34189 32.3425 0 34 0C35.6575 0 37 1.34189 37 2.99865Z" fill="#F0A536"/>
<path fill-rule="evenodd" clip-rule="evenodd" d="M52 2.99865C52 4.6554 50.6575 5.99729 49 5.99729C47.3425 5.99729 46 4.6554 46 2.99865C46 1.34189 47.3425 0 49 0C50.6575 0 52 1.34189 52 2.99865Z" fill="#F0A536"/>
<path fill-rule="evenodd" clip-rule="evenodd" d="M68 2.99865C68 4.6554 66.6575 5.99729 65 5.99729C63.3425 5.99729 62 4.6554 62 2.99865C62 1.34189 63.3425 0 65 0C66.6575 0 68 1.34189 68 2.99865Z" fill="#F0A536"/>
<path fill-rule="evenodd" clip-rule="evenodd" d="M83 2.99865C83 4.6554 81.6575 5.99729 80 5.99729C78.3425 5.99729 77 4.6554 77 2.99865C77 1.34189 78.3425 0 80 0C81.6575 0 83 1.34189 83 2.99865Z" fill="#F0A536"/>
<path fill-rule="evenodd" clip-rule="evenodd" d="M99 2.99865C99 4.6554 97.6575 5.99729 96 5.99729C94.3425 5.99729 93 4.6554 93 2.99865C93 1.34189 94.3425 0 96 0C97.6575 0 99 1.34189 99 2.99865Z" fill="#F0A536"/>
<path fill-rule="evenodd" clip-rule="evenodd" d="M114 2.99865C114 4.6554 112.658 5.99729 111 5.99729C109.342 5.99729 108 4.6554 108 2.99865C108 1.34189 109.342 0 111 0C112.658 0 114 1.34189 114 2.99865Z" fill="#F0A536"/>
<path fill-rule="evenodd" clip-rule="evenodd" d="M130 2.99865C130 4.6554 128.658 5.99729 127 5.99729C125.342 5.99729 124 4.6554 124 2.99865C124 1.34189 125.342 0 127 0C128.658 0 130 1.34189 130 2.99865Z" fill="#F0A536"/>
<path fill-rule="evenodd" clip-rule="evenodd" d="M145 2.99865C145 4.6554 143.658 5.99729 142 5.99729C140.342 5.99729 139 4.6554 139 2.99865C139 1.34189 140.342 0 142 0C143.658 0 145 1.34189 145 2.99865Z" fill="#F0A536"/>
<path fill-rule="evenodd" clip-rule="evenodd" d="M160 2.99865C160 4.6554 158.658 5.99729 157 5.99729C155.342 5.99729 154 4.6554 154 2.99865C154 1.34189 155.342 0 157 0C158.658 0 160 1.34189 160 2.99865Z" fill="#F0A536"/>
<path fill-rule="evenodd" clip-rule="evenodd" d="M176 2.99865C176 4.6554 174.658 5.99729 173 5.99729C171.342 5.99729 170 4.6554 170 2.99865C170 1.34189 171.342 0 173 0C174.658 0 176 1.34189 176 2.99865Z" fill="#F0A536"/>
</svg>
